<svg xmlns="http://www.w3.org/2000/svg" width="1024" height="1024" viewBox="0 0 1024 1024">
<g>
<path d="M 217.00 777.74 C217.00,777.58 218.34,774.87 219.97,771.73 C233.47,745.70 259.26,721.49 295.50,700.82 C325.48,683.72 365.18,668.99 401.23,661.59 C431.05,655.47 444.07,653.60 471.50,651.49 C510.18,648.51 553.11,650.01 590.50,655.63 C681.23,669.28 757.49,706.97 793.35,755.88 C798.03,762.26 805.00,774.88 805.00,776.96 C805.00,777.52 801.23,775.06 796.62,771.51 C753.55,738.26 671.99,707.23 601.00,697.08 C596.88,696.49 588.78,695.34 583.00,694.52 C537.46,688.10 479.45,688.83 426.42,696.49 C410.43,698.80 389.39,703.02 373.00,707.20 C315.08,721.98 270.50,741.34 229.25,769.63 C222.51,774.25 217.00,777.90 217.00,777.74 ZM 289.75 629.13 C287.31,628.41 285.04,624.45 285.02,620.86 C284.99,614.95 287.38,613.04 297.51,610.89 C321.83,605.72 338.78,591.54 351.76,565.50 C355.48,558.04 380.39,502.28 405.83,444.50 C411.88,430.75 418.96,414.77 421.55,409.00 C424.14,403.23 430.87,387.92 436.50,375.00 C448.38,347.75 473.30,291.38 478.94,279.00 C484.44,266.92 492.00,249.05 492.00,248.13 C492.00,246.51 496.76,243.01 504.50,238.95 C508.90,236.64 514.53,233.38 517.00,231.71 C522.17,228.22 530.36,226.93 533.17,229.17 C534.09,229.90 536.05,233.43 537.52,237.00 C541.74,247.25 552.07,271.77 567.01,307.00 C574.59,324.88 584.49,348.27 589.01,359.00 C593.53,369.73 598.04,380.30 599.02,382.50 C600.00,384.70 602.60,390.77 604.78,396.00 C620.44,433.38 650.80,504.82 657.48,520.00 C659.30,524.12 664.71,536.72 669.51,548.00 C678.81,569.85 683.38,578.50 690.18,587.12 C702.08,602.20 713.21,608.64 734.00,612.45 C738.75,613.33 740.50,615.46 740.50,620.39 C740.50,623.79 739.93,625.52 738.23,627.21 L 735.97 629.48 L 648.78 629.36 L 561.60 629.24 L 559.30 626.56 C554.74,621.27 558.07,612.00 564.54,612.00 C569.37,612.00 583.45,607.88 587.65,605.23 C589.93,603.80 592.57,601.30 593.53,599.69 C598.52,591.24 594.76,573.48 580.47,538.00 C565.00,499.62 563.05,495.51 559.80,494.64 C558.53,494.30 526.86,494.02 489.41,494.01 L 421.32 494.00 L 420.06 496.75 C416.77,503.90 399.80,545.73 396.20,555.56 C391.27,568.98 388.54,581.72 389.42,587.19 C390.20,592.09 393.49,598.73 396.36,601.20 C401.30,605.46 411.84,609.40 425.34,612.04 C433.18,613.57 435.39,615.85 434.73,621.72 C433.80,629.93 439.63,629.32 361.05,629.41 C322.52,629.46 290.44,629.33 289.75,629.13 ZM 547.46 463.38 C549.39,462.64 549.40,460.96 547.52,456.78 C546.71,454.98 544.43,449.23 542.46,444.00 C540.48,438.77 538.47,433.60 537.98,432.50 C536.25,428.61 531.60,417.12 517.77,382.50 C502.07,343.21 495.52,327.58 493.64,324.90 C492.52,323.30 491.48,325.22 485.04,340.79 C481.02,350.53 474.34,366.38 470.22,376.00 C466.09,385.62 461.02,397.55 458.95,402.50 C456.88,407.45 453.52,415.33 451.48,420.00 C443.63,438.03 434.10,462.36 434.59,463.14 C435.16,464.07 545.07,464.29 547.46,463.38 Z" fill="rgba(0,0,0,1)"/>
</g>
</svg>